<?xml version="1.0" encoding="UTF-8"?>
<!DOCTYPE svg PUBLIC "-//W3C//DTD SVG 1.1//EN" "http://www.w3.org/Graphics/SVG/1.1/DTD/svg11.dtd">
<svg xmlns="http://www.w3.org/2000/svg" version="1.1" width="9px" height="38px" style="shape-rendering:geometricPrecision; text-rendering:geometricPrecision; image-rendering:optimizeQuality; fill-rule:evenodd; clip-rule:evenodd" xmlns:xlink="http://www.w3.org/1999/xlink">
<g><path style="opacity:0.85" fill="#fefffe" d="M 1.5,-0.5 C 3.5,-0.5 5.5,-0.5 7.5,-0.5C 7.5,0.166667 7.83333,0.5 8.5,0.5C 8.5,2.83333 8.5,5.16667 8.5,7.5C 5.22196,9.10667 2.22196,8.77334 -0.5,6.5C -0.5,4.83333 -0.5,3.16667 -0.5,1.5C 0.5,1.16667 1.16667,0.5 1.5,-0.5 Z"/></g>
<g><path style="opacity:0.809" fill="#fefffe" d="M 8.5,15.5 C 8.5,17.5 8.5,19.5 8.5,21.5C 5.57779,24.034 2.57779,24.034 -0.5,21.5C -0.5,19.5 -0.5,17.5 -0.5,15.5C 2.57779,12.966 5.57779,12.966 8.5,15.5 Z"/></g>
<g><path style="opacity:0.842" fill="#fefffe" d="M 8.5,29.5 C 8.5,31.8333 8.5,34.1667 8.5,36.5C 7.83333,36.5 7.5,36.8333 7.5,37.5C 5.5,37.5 3.5,37.5 1.5,37.5C 1.16667,36.5 0.5,35.8333 -0.5,35.5C -0.5,33.8333 -0.5,32.1667 -0.5,30.5C 2.26298,28.3187 5.26298,27.9854 8.5,29.5 Z"/></g>
</svg>
