<?xml version="1.0" encoding="UTF-8"?>
<!DOCTYPE svg PUBLIC "-//W3C//DTD SVG 1.1//EN" "http://www.w3.org/Graphics/SVG/1.1/DTD/svg11.dtd">
<svg xmlns="http://www.w3.org/2000/svg" version="1.1" width="37px" height="34px" style="shape-rendering:geometricPrecision; text-rendering:geometricPrecision; image-rendering:optimizeQuality; fill-rule:evenodd; clip-rule:evenodd" xmlns:xlink="http://www.w3.org/1999/xlink">
<g><path style="opacity:0.815" fill="#fefffe" d="M -0.5,-0.5 C 7.16667,-0.5 14.8333,-0.5 22.5,-0.5C 22.5,0.5 22.5,1.5 22.5,2.5C 14.8333,2.5 7.16667,2.5 -0.5,2.5C -0.5,1.5 -0.5,0.5 -0.5,-0.5 Z"/></g>
<g><path style="opacity:0.771" fill="#fefffe" d="M 31.5,-0.5 C 33.1667,-0.5 34.8333,-0.5 36.5,-0.5C 36.5,0.5 36.5,1.5 36.5,2.5C 34.5648,3.14952 32.5648,3.48285 30.5,3.5C 30.6664,11.5069 30.4997,19.5069 30,27.5C 29.3614,30.2121 27.8614,32.2121 25.5,33.5C 23.1667,33.5 20.8333,33.5 18.5,33.5C 17.5423,32.0384 16.3756,30.7051 15,29.5C 13.9486,20.8506 17.6153,17.8506 26,20.5C 26.1694,14.1406 26.6694,7.80724 27.5,1.5C 29.0255,1.00569 30.3588,0.339027 31.5,-0.5 Z"/></g>
<g><path style="opacity:0.63" fill="#fefffe" d="M -0.5,7.5 C 7.16667,7.5 14.8333,7.5 22.5,7.5C 22.67,8.82207 22.3366,9.98873 21.5,11C 14.1742,11.4997 6.8409,11.6663 -0.5,11.5C -0.5,10.1667 -0.5,8.83333 -0.5,7.5 Z"/></g>
<g><path style="opacity:0.6" fill="#fefffe" d="M -0.5,15.5 C 3.84611,15.3343 8.17944,15.501 12.5,16C 13.8333,17 13.8333,18 12.5,19C 8.17944,19.499 3.84611,19.6657 -0.5,19.5C -0.5,18.1667 -0.5,16.8333 -0.5,15.5 Z"/></g>
<g><path style="opacity:0.578" fill="#fefffe" d="M -0.5,23.5 C 2.1873,23.3359 4.85397,23.5026 7.5,24C 8.83333,25 8.83333,26 7.5,27C 4.85397,27.4974 2.1873,27.6641 -0.5,27.5C -0.5,26.1667 -0.5,24.8333 -0.5,23.5 Z"/></g>
</svg>
