<?xml version="1.0" encoding="UTF-8"?>
<!DOCTYPE svg PUBLIC "-//W3C//DTD SVG 1.1//EN" "http://www.w3.org/Graphics/SVG/1.1/DTD/svg11.dtd">
<svg xmlns="http://www.w3.org/2000/svg" version="1.1" width="30px" height="27px" style="shape-rendering:geometricPrecision; text-rendering:geometricPrecision; image-rendering:optimizeQuality; fill-rule:evenodd; clip-rule:evenodd" xmlns:xlink="http://www.w3.org/1999/xlink">
<g><path style="opacity:0.693" fill="#fefffe" d="M 20.5,-0.5 C 21.5,-0.5 22.5,-0.5 23.5,-0.5C 25.1815,1.00751 27.1815,2.00751 29.5,2.5C 29.5,3.5 29.5,4.5 29.5,5.5C 26.7201,5.80686 24.2201,6.80686 22,8.5C 20.1739,7.98957 20.0072,7.15623 21.5,6C 19.8333,5.33333 18.1667,5.33333 16.5,6C 14.4207,9.3244 12.7541,12.8244 11.5,16.5C 10.19,18.4346 8.8567,20.4346 7.5,22.5C 4.91585,23.3928 2.24919,23.7261 -0.5,23.5C -0.5,22.5 -0.5,21.5 -0.5,20.5C 1.5273,20.6621 3.5273,20.4955 5.5,20C 10.0221,15.7096 10.3555,11.2096 6.5,6.5C 4.25731,5.52577 1.92397,5.19244 -0.5,5.5C -0.5,4.5 -0.5,3.5 -0.5,2.5C 5.93827,0.756204 9.7716,3.08954 11,9.5C 12.6379,4.35928 16.1379,1.69261 21.5,1.5C 21.1373,0.816537 20.8039,0.14987 20.5,-0.5 Z"/></g>
<g><path style="opacity:0.676" fill="#fefffe" d="M 29.5,20.5 C 29.5,21.5 29.5,22.5 29.5,23.5C 27.1815,23.9925 25.1815,24.9925 23.5,26.5C 22.5,26.5 21.5,26.5 20.5,26.5C 20.8039,25.8501 21.1373,25.1835 21.5,24.5C 16.0643,24.3925 12.731,21.7259 11.5,16.5C 12.1499,16.1961 12.8165,15.8627 13.5,15.5C 14.6011,18.2695 16.6011,19.9362 19.5,20.5C 20.8507,19.6345 21.6841,18.6345 22,17.5C 24.2201,19.1931 26.7201,20.1931 29.5,20.5 Z"/></g>
</svg>
