<?xml version="1.0" encoding="UTF-8"?>
<!DOCTYPE svg PUBLIC "-//W3C//DTD SVG 1.1//EN" "http://www.w3.org/Graphics/SVG/1.1/DTD/svg11.dtd">
<svg xmlns="http://www.w3.org/2000/svg" version="1.1" width="38px" height="35px" style="shape-rendering:geometricPrecision; text-rendering:geometricPrecision; image-rendering:optimizeQuality; fill-rule:evenodd; clip-rule:evenodd" xmlns:xlink="http://www.w3.org/1999/xlink">
<g><path style="opacity:0.948" fill="#fefffe" d="M 4.5,-0.5 C 7.83333,-0.5 11.1667,-0.5 14.5,-0.5C 15.7653,0.479345 17.0986,1.47934 18.5,2.5C 19.9014,1.47934 21.2347,0.479345 22.5,-0.5C 25.8333,-0.5 29.1667,-0.5 32.5,-0.5C 34.1964,1.52483 35.863,3.52483 37.5,5.5C 37.5,8.5 37.5,11.5 37.5,14.5C 31.848,21.485 25.848,28.1517 19.5,34.5C 18.8333,34.5 18.1667,34.5 17.5,34.5C 11.152,28.1517 5.152,21.485 -0.5,14.5C -0.5,11.1667 -0.5,7.83333 -0.5,4.5C 1.5,3.16667 3.16667,1.5 4.5,-0.5 Z"/></g>
</svg>
