<?xml version="1.0" encoding="UTF-8"?>
<!DOCTYPE svg PUBLIC "-//W3C//DTD SVG 1.1//EN" "http://www.w3.org/Graphics/SVG/1.1/DTD/svg11.dtd">
<svg xmlns="http://www.w3.org/2000/svg" version="1.1" width="40px" height="35px" style="shape-rendering:geometricPrecision; text-rendering:geometricPrecision; image-rendering:optimizeQuality; fill-rule:evenodd; clip-rule:evenodd" xmlns:xlink="http://www.w3.org/1999/xlink">
<g><path style="opacity:0.726" fill="#fefffe" d="M 1.5,-0.5 C 8.5,-0.5 15.5,-0.5 22.5,-0.5C 24.385,1.05322 25.385,3.05322 25.5,5.5C 30.6403,4.80259 35.307,5.80259 39.5,8.5C 39.5,11.5 39.5,14.5 39.5,17.5C 38.1667,17.5 36.8333,17.5 35.5,17.5C 35.5,14.8333 35.5,12.1667 35.5,9.5C 30.8333,9.5 26.1667,9.5 21.5,9.5C 21.5,7.5 21.5,5.5 21.5,3.5C 15.1667,3.5 8.83333,3.5 2.5,3.5C 2.5,12.1667 2.5,20.8333 2.5,29.5C 9.5,29.5 16.5,29.5 23.5,29.5C 23.5,30.8333 23.5,32.1667 23.5,33.5C 16.4921,33.6663 9.49207,33.4996 2.5,33C 1.47344,32.4867 0.473444,31.9867 -0.5,31.5C -0.5,21.5 -0.5,11.5 -0.5,1.5C 0.5,1.16667 1.16667,0.5 1.5,-0.5 Z"/></g>
<g><path style="opacity:0.682" fill="#fefffe" d="M 13.5,11.5 C 17.5493,12.6933 21.216,14.6933 24.5,17.5C 21.1667,19.5 17.8333,21.5 14.5,23.5C 13.5091,19.5546 13.1758,15.5546 13.5,11.5 Z"/></g>
<g><path style="opacity:0.695" fill="#fefffe" d="M 39.5,24.5 C 39.5,25.8333 39.5,27.1667 39.5,28.5C 37.5,28.5 35.5,28.5 33.5,28.5C 33.5,30.5 33.5,32.5 33.5,34.5C 32.5,34.5 31.5,34.5 30.5,34.5C 29.6586,32.6208 29.3253,30.6208 29.5,28.5C 25.7593,29.4015 23.7593,28.0681 23.5,24.5C 25.5,24.5 27.5,24.5 29.5,24.5C 29.3379,22.4727 29.5045,20.4727 30,18.5C 31,17.1667 32,17.1667 33,18.5C 33.4955,20.4727 33.6621,22.4727 33.5,24.5C 35.5,24.5 37.5,24.5 39.5,24.5 Z"/></g>
</svg>
