<?xml version="1.0" encoding="UTF-8"?>
<!DOCTYPE svg PUBLIC "-//W3C//DTD SVG 1.1//EN" "http://www.w3.org/Graphics/SVG/1.1/DTD/svg11.dtd">
<svg xmlns="http://www.w3.org/2000/svg" version="1.1" width="80px" height="80px" style="shape-rendering:geometricPrecision; text-rendering:geometricPrecision; image-rendering:optimizeQuality; fill-rule:evenodd; clip-rule:evenodd" xmlns:xlink="http://www.w3.org/1999/xlink">
<g><path style="opacity:0.971" fill="#666666" d="M 30.5,-0.5 C 36.5,-0.5 42.5,-0.5 48.5,-0.5C 64.5,4.16667 74.8333,14.5 79.5,30.5C 79.5,36.5 79.5,42.5 79.5,48.5C 74.8333,64.5 64.5,74.8333 48.5,79.5C 42.5,79.5 36.5,79.5 30.5,79.5C 14.5,74.8333 4.16667,64.5 -0.5,48.5C -0.5,42.5 -0.5,36.5 -0.5,30.5C 4.16667,14.5 14.5,4.16667 30.5,-0.5 Z"/></g>
<g><path style="opacity:1" fill="#eeeeee" d="M 47.5,22.5 C 50.9396,24.0549 54.2729,25.8882 57.5,28C 54.9952,29.7533 52.3286,31.2533 49.5,32.5C 48.6143,31.675 48.281,30.675 48.5,29.5C 45.3148,29.0196 42.4815,29.6863 40,31.5C 36.8001,38.7377 32.9667,45.571 28.5,52C 25.5184,52.498 22.5184,52.6646 19.5,52.5C 19.5,51.5 19.5,50.5 19.5,49.5C 22.5719,49.8174 25.5719,49.4841 28.5,48.5C 30.247,45.5061 31.5804,42.3394 32.5,39C 31.3476,35.6935 29.681,32.6935 27.5,30C 24.854,29.5026 22.1873,29.3359 19.5,29.5C 19.5,28.5 19.5,27.5 19.5,26.5C 22.5184,26.3354 25.5184,26.502 28.5,27C 31.3116,29.2872 33.3116,32.1205 34.5,35.5C 36.1312,32.4036 38.1312,29.5702 40.5,27C 42.8098,26.5034 45.1432,26.3367 47.5,26.5C 47.5,25.1667 47.5,23.8333 47.5,22.5 Z"/></g>
<g><path style="opacity:1" fill="#eeeeee" d="M 36.5,43.5 C 38.4828,44.9022 40.1495,46.7355 41.5,49C 43.4727,49.4955 45.4727,49.6621 47.5,49.5C 47.281,48.325 47.6143,47.325 48.5,46.5C 51.6612,47.9131 54.6612,49.5797 57.5,51.5C 54.6612,53.4203 51.6612,55.0869 48.5,56.5C 47.5713,55.3112 47.238,53.9778 47.5,52.5C 40.4768,53.4696 36.8101,50.4696 36.5,43.5 Z"/></g>
</svg>
