<?xml version="1.0" encoding="UTF-8"?>
<!DOCTYPE svg PUBLIC "-//W3C//DTD SVG 1.1//EN" "http://www.w3.org/Graphics/SVG/1.1/DTD/svg11.dtd">
<svg xmlns="http://www.w3.org/2000/svg" version="1.1" width="45px" height="41px" style="shape-rendering:geometricPrecision; text-rendering:geometricPrecision; image-rendering:optimizeQuality; fill-rule:evenodd; clip-rule:evenodd" xmlns:xlink="http://www.w3.org/1999/xlink">
<g><path style="opacity:0.865" fill="#fefffe" d="M 4.5,-0.5 C 7.83333,-0.5 11.1667,-0.5 14.5,-0.5C 15.6883,0.363622 16.8549,1.36362 18,2.5C 19.1451,1.36362 20.3117,0.363622 21.5,-0.5C 24.8333,-0.5 28.1667,-0.5 31.5,-0.5C 33.1436,1.48073 34.8103,3.48073 36.5,5.5C 33.1728,6.49935 29.8395,7.49935 26.5,8.5C 18.055,4.59465 11.555,6.59465 7,14.5C 6.57834,17.2356 6.57834,19.9023 7,22.5C 3.91157,19.9186 1.41157,16.9186 -0.5,13.5C -0.5,10.5 -0.5,7.5 -0.5,4.5C 1.5,3.16667 3.16667,1.5 4.5,-0.5 Z"/></g>
<g><path style="opacity:0.926" fill="#fefffe" d="M 44.5,14.5 C 44.5,17.1667 44.5,19.8333 44.5,22.5C 39.5371,29.1305 33.8705,35.1305 27.5,40.5C 26.8333,40.5 26.1667,40.5 25.5,40.5C 20.562,36.0641 15.7287,31.3975 11,26.5C 5.73515,17.0413 8.23515,11.0413 18.5,8.5C 21.3655,8.93121 24.0322,9.93121 26.5,11.5C 33.3881,6.91324 39.3881,7.91324 44.5,14.5 Z"/></g>
</svg>
