<?xml version="1.0" encoding="UTF-8"?>
<!DOCTYPE svg PUBLIC "-//W3C//DTD SVG 1.1//EN" "http://www.w3.org/Graphics/SVG/1.1/DTD/svg11.dtd">
<svg xmlns="http://www.w3.org/2000/svg" version="1.1" width="23px" height="21px" style="shape-rendering:geometricPrecision; text-rendering:geometricPrecision; image-rendering:optimizeQuality; fill-rule:evenodd; clip-rule:evenodd" xmlns:xlink="http://www.w3.org/1999/xlink">
<g><path style="opacity:0.632" fill="#fefffe" d="M 10.5,-0.5 C 12.1667,-0.5 13.8333,-0.5 15.5,-0.5C 16.3007,1.04181 16.634,2.70848 16.5,4.5C 18.9468,4.61501 20.9468,5.61501 22.5,7.5C 22.5,9.16667 22.5,10.8333 22.5,12.5C 21.361,15.4336 19.6943,18.1003 17.5,20.5C 14.1667,20.5 10.8333,20.5 7.5,20.5C 5.0521,19.5269 2.38544,19.1936 -0.5,19.5C -0.5,15.1667 -0.5,10.8333 -0.5,6.5C 4.41349,6.2745 8.08016,3.94117 10.5,-0.5 Z M 12.5,1.5 C 13.2389,1.36899 13.9056,1.53566 14.5,2C 12.5586,3.81588 11.8919,5.81588 12.5,8C 14.7513,7.79319 17.0846,7.62652 19.5,7.5C 20.0891,16.4081 16.0891,19.5748 7.5,17C 6.38316,13.9269 6.21649,10.7603 7,7.5C 9.03961,5.62976 10.8729,3.62976 12.5,1.5 Z M 1.5,9.5 C 2.72507,10.1522 3.39174,11.3189 3.5,13C 3.16667,14.1667 2.83333,15.3333 2.5,16.5C 1.52577,14.2573 1.19244,11.924 1.5,9.5 Z"/></g>
</svg>
