<?xml version="1.0" encoding="UTF-8"?>
<!DOCTYPE svg PUBLIC "-//W3C//DTD SVG 1.1//EN" "http://www.w3.org/Graphics/SVG/1.1/DTD/svg11.dtd">
<svg xmlns="http://www.w3.org/2000/svg" version="1.1" width="50px" height="44px" style="shape-rendering:geometricPrecision; text-rendering:geometricPrecision; image-rendering:optimizeQuality; fill-rule:evenodd; clip-rule:evenodd" xmlns:xlink="http://www.w3.org/1999/xlink">
<g><path style="opacity:0.867" fill="#fefffe" d="M 3.5,-0.5 C 6.16667,-0.5 8.83333,-0.5 11.5,-0.5C 12.8333,2.16667 14.1667,2.16667 15.5,-0.5C 17.8333,-0.5 20.1667,-0.5 22.5,-0.5C 20.3939,1.71879 19.3939,4.38545 19.5,7.5C 12.491,7.17047 7.49103,10.1705 4.5,16.5C 2.59862,14.9937 0.93195,13.3271 -0.5,11.5C -0.5,8.83333 -0.5,6.16667 -0.5,3.5C 0.5,1.83333 1.83333,0.5 3.5,-0.5 Z"/></g>
<g><path style="opacity:0.879" fill="#fefffe" d="M 25.5,-0.5 C 28.1667,-0.5 30.8333,-0.5 33.5,-0.5C 35.1667,2.16667 36.8333,2.16667 38.5,-0.5C 41.1667,-0.5 43.8333,-0.5 46.5,-0.5C 47.1667,0.833333 48.1667,1.83333 49.5,2.5C 49.5,5.83333 49.5,9.16667 49.5,12.5C 48.2058,13.2899 47.0391,14.2899 46,15.5C 40.9272,7.11429 34.2606,5.44763 26,10.5C 23.9471,9.73349 22.4471,8.40015 21.5,6.5C 22.0707,3.68734 23.4041,1.35401 25.5,-0.5 Z"/></g>
<g><path style="opacity:0.922" fill="#fefffe" d="M 26.5,43.5 C 25.8333,43.5 25.1667,43.5 24.5,43.5C 21.1684,39.3356 17.335,35.6689 13,32.5C 10.1727,29.6706 8.17273,26.3372 7,22.5C 6.21879,14.7759 9.71879,10.4425 17.5,9.5C 20.3655,9.93121 23.0322,10.9312 25.5,12.5C 33.6027,7.42669 39.7694,9.09335 44,17.5C 44.5976,21.0527 43.9309,24.386 42,27.5C 37.3021,33.3634 32.1354,38.6967 26.5,43.5 Z"/></g>
</svg>
