<?xml version="1.0" encoding="UTF-8"?>
<!DOCTYPE svg PUBLIC "-//W3C//DTD SVG 1.1//EN" "http://www.w3.org/Graphics/SVG/1.1/DTD/svg11.dtd">
<svg xmlns="http://www.w3.org/2000/svg" version="1.1" width="38px" height="35px" style="shape-rendering:geometricPrecision; text-rendering:geometricPrecision; image-rendering:optimizeQuality; fill-rule:evenodd; clip-rule:evenodd" xmlns:xlink="http://www.w3.org/1999/xlink">
<g><path style="opacity:0.944" fill="#6f6f6f" d="M 6.5,-0.5 C 8.83333,-0.5 11.1667,-0.5 13.5,-0.5C 15.1233,0.77943 16.79,2.11276 18.5,3.5C 20.21,2.11276 21.8767,0.77943 23.5,-0.5C 25.8333,-0.5 28.1667,-0.5 30.5,-0.5C 33.0599,1.27333 35.3932,3.27333 37.5,5.5C 37.5,9.16667 37.5,12.8333 37.5,16.5C 32.1608,22.7001 26.4941,28.7001 20.5,34.5C 19.1667,34.5 17.8333,34.5 16.5,34.5C 10.434,28.439 4.76732,22.1056 -0.5,15.5C -0.5,12.1667 -0.5,8.83333 -0.5,5.5C 1.64712,3.26321 3.98045,1.26321 6.5,-0.5 Z"/></g>
</svg>
